<?xml version="1.0" encoding="utf-8"?>
<!-- Generator: Adobe Illustrator 22.1.0, SVG Export Plug-In . SVG Version: 6.00 Build 0)  -->
<svg version="1.1" id="Layer_1" xmlns="http://www.w3.org/2000/svg" xmlns:xlink="http://www.w3.org/1999/xlink" x="0px" y="0px"
	 viewBox="0 0 299.9 299.9" style="enable-background:new 0 0 299.9 299.9;" xml:space="preserve">
<style type="text/css">
	.st0{fill:#F7DCBD;stroke:#010101;stroke-miterlimit:10;}
	.st1{fill:#F7DCBD;}
	.st2{fill:#080505;stroke:#020202;stroke-miterlimit:10;}
	.st3{fill:#4778BC;stroke:#010101;stroke-miterlimit:10;}
	.st4{
	fill:#FFFFFF;
	stroke:#010101;
	stroke-miterlimit:10;
	}
	.st5{fill:#231F20;}
	.st6{fill:none;stroke:#231F20;stroke-miterlimit:10;}
	.st7{fill:#BE202E;stroke:#231F20;stroke-miterlimit:10;}
	.st8{fill:#F6EB16;stroke:#010101;stroke-miterlimit:10;}
	.blackeye1{
		animation: right 1s linear 2s infinite alternate;
	}
	.blackeye2{
		animation: left 1s linear 2s infinite alternate;
	}
	.hair{
		transform:rotate(100);
		animation: hair 1s linear 2s infinite alternate;
	}

		@-webkit-keyframes right {
	    0%   {cx: 170;}
	    100% {cx: 185;;}
	}

		@-webkit-keyframes left {
	    0%   {cx: 100;}
	    100% {cx: 120;}
	}
		@-webkit-keyframes hair {
	    0%   {rotate: 45;}
	    100% {cx: 120;}
	}
</style>
<g>
	<path class="st0" d="M244.1,397.9v-71.4h-22v71.4c-5.3,3.5-8.8,9.6-8.8,16.4c0,10.9,8.9,19.8,19.8,19.8c10.9,0,19.8-8.9,19.8-19.8
		C252.9,407.5,249.4,401.5,244.1,397.9z"/>
	<path class="st0" d="M90.3,397.9v-71.4h-22v71.4c-5.3,3.5-8.8,9.6-8.8,16.4c0,10.9,8.9,19.8,19.8,19.8c10.9,0,19.8-8.9,19.8-19.8
		C99.1,407.5,95.6,401.5,90.3,397.9z"/>
	<rect x="133.1" y="252.9" class="st1" width="50.5" height="57.1"/>
	<g>
		<path class="st2" d="M101.8,576.9h28.6c0,0,5.9,22.9-8.7,26.4H90.8c0,0-13.2,2.3-13.2-9.7C77.6,581.6,101.8,576.9,101.8,576.9z"/>
	</g>
	<g>
		<path class="st2" d="M209.5,576.9H181c0,0-5.9,22.9,8.7,26.4h30.9c0,0,13.2,2.3,13.2-9.7C233.7,581.6,209.5,576.9,209.5,576.9z"/>
	</g>
	<polygon class="st3" points="157.3,452 181.5,576.9 210,576.9 223.2,425.7 223.2,403.4 89.2,403.4 89.2,425.7 102.4,576.9 
		130.9,576.9 	"/>
	<path class="st4" d="M256.2,336.1c-6.4-53.2-56.8-87.9-56.8-87.9s-22.5,43.2-41,43.2s-45.1-43.2-45.1-43.2s-47.3,34-53.7,87.1
		l30.9,11l1.2-32l-3.8,111.1H156h0.6h68.2L221,314.3l1.2,32L256.2,336.1z"/>
	<path class="st0" d="M60.6,89.2c0,0-14.3,26.4-12.1,72.5c2.2,46.1-2.2,89,26.4,98.9s107.7,17.6,146.1-7.7s29.7-34.1,33-37.3
		c3.3-3.3,31.9-1.1,19.8-29.7s-25.3-18.7-30.8-12.1c0,0,24.2-107.7-64.8-113.1S69.4,76,60.6,89.2z"/>
	<path class="st5" d="M138.1,43.2c0,0-133.6-4.8-98.9,164.7l68.1-88.8c0,0-11.6,31.5-3.9,53.7c0,0,36.6-64.4,57.1-68.1
		c0,0,41.2,59.3,60.4,59.3l-3.3-59.7c0,0,18,85.1,37.2,94.4C255,198.6,314.4,26.6,138.1,43.2z"/>
	<path class="hair st5" d="M125.8,85.5c0,0-27-44.3-101.5-29.5c0,0,41.1,10.3,52.7,60.5L125.8,85.5z"/>
	<path class="st5" d="M146.4,62.6c0,0-27-41.1-101.5-27.4c0,0,41.1,9.6,52.7,56.2L146.4,62.6z"/>
	<path  class="eye st4" d="M192.8,180.5c0,7.8-6.3,14.1-14.1,14.1c-7.8,0-14.1-6.3-14.1-14.1c0-7.8,6.3-14.1,14.1-14.1
		C186.5,166.5,192.8,172.8,192.8,180.5z"/>
	<circle class="blackeye1 st5" cx="178.7" cy="180.5" r="3.7"/>
	<path class="eye st4" d="M123.1,183.3c0,7.8-6.3,14.1-14.1,14.1c-7.8,0-14.1-6.3-14.1-14.1c0-7.8,6.3-14.1,14.1-14.1
		C116.8,169.2,123.1,175.5,123.1,183.3z"/>
	<circle class="blackeye2 st5" cx="109" cy="183.3" r="3.7"/>
	<line class="st6" x1="155.1" y1="163.9" x2="183.1" y2="153.5"/>
	<path class="st7" d="M157.3,210.9c0,13.8-5,25-11.3,25c-6.2,0-11.3-11.2-11.3-25H157.3z"/>
	<g>
		<circle class="st8" cx="158.4" cy="348.4" r="35.2"/>
		<circle class="st5" cx="145.1" cy="336.1" r="2.2"/>
		<circle class="st5" cx="171.5" cy="336.1" r="2.2"/>
		<g>
			<g>
				<path class="st5" d="M169.9,370.2c4.5-3,7.3-7.7,8-13c0.1-0.8-1.4-0.6-1.5,0.1c-0.6,5-3.3,9.4-7.5,12.2
					C168.1,370,169.2,370.6,169.9,370.2L169.9,370.2z"/>
			</g>
		</g>
		<g>
			<g>
				<path class="st5" d="M173.7,351.8c1.5-3.6,5.8-2,6.2,1.3c0.1,0.5,1.5,0.1,1.4-0.4c-0.6-5-7.4-4.9-9.1-0.7
					C172.1,352.4,173.6,352.2,173.7,351.8L173.7,351.8z"/>
			</g>
		</g>
		<g>
			<g>
				<path class="st5" d="M155.4,340.9c-1.9,3.3-3.8,6-7,8.3c-1.4,1-2.9,1.7-3.7,3.3c-1.8,3.4,0.6,7.9,4,9.2
					c6,2.3,16.4-3.7,13.9-10.7c-0.1-0.3-1.5,0.1-1.4,0.4c0.8,2,0.4,3.8-0.8,5.7c-1.8,2.8-5.9,4.8-9.2,4.4c-3.4-0.4-5.8-4.2-5.4-7.4
					c0.4-3.6,4.1-4.6,6.5-6.8c2-1.9,3.3-4.2,4.7-6.6C156.9,340.4,155.6,340.5,155.4,340.9L155.4,340.9z"/>
			</g>
		</g>
		<g>
			<g>
				<path class="st5" d="M147.2,320c-1.7,4.5-4.4,8.5-7.9,11.8c-0.4,0.4,0.6,0.3,0.8,0.1c3.7-3.3,6.4-7.4,8.1-12
					C148.3,319.7,147.3,319.8,147.2,320L147.2,320z"/>
			</g>
		</g>
		<g>
			<g>
				<path class="st5" d="M163.3,320.1c1.7,4.6,4.4,8.6,8.1,11.9c0.2,0.2,1.1-0.2,0.9-0.4c-3.6-3.3-6.3-7.3-8-11.8
					C164.2,319.6,163.2,319.8,163.3,320.1L163.3,320.1z"/>
			</g>
		</g>
	</g>
</g>
</svg>
