<?xml version="1.0" encoding="utf-8"?>
<!-- Generator: Adobe Illustrator 22.1.0, SVG Export Plug-In . SVG Version: 6.00 Build 0)  -->
<svg version="1.1" id="Layer_1" xmlns="http://www.w3.org/2000/svg" xmlns:xlink="http://www.w3.org/1999/xlink" x="0px" y="0px"
	 viewBox="0 0 137.1 137.1" style="enable-background:new 0 0 137.1 137.1;" xml:space="preserve">
<style type="text/css">
	.st0{fill:none;stroke:#C0C0C0;stroke-width:5;stroke-miterlimit:10;}
	.st1{fill:none;}
	.st2{fill:#C0C0C0;}
	.st3{fill:#CE3727;}
</style>
<circle class="st0" cx="68.5" cy="68.5" r="54.7"/>
<g>
	<path class="st1" d="M79.1,38c-1.7-1.4-3.6-2.4-5.7-3.2c-2.1-0.7-4.6-1.1-7.3-1.1c-2.4,0-4.5,0.3-6.3,1s-3.3,1.5-4.5,2.6
		s-2.1,2.3-2.7,3.7c-0.6,1.4-0.9,2.8-0.9,4.2c0,2,0.6,3.8,1.9,5.5c1.2,1.7,2.9,3.2,4.9,4.7c1.8,1.4,3.9,2.7,6.2,3.9
		c1.1-2.1,2.3-4.2,3.5-6.2c1.5-2.6,3.2-4.9,5-6.9s3.8-3.6,6-4.9c0.7-0.4,1.4-0.7,2.2-1C80.7,39.5,80,38.7,79.1,38z"/>
	<path class="st1" d="M48.5,62.9c-1.9-1.8-3.5-3.8-4.7-6.1c-0.9-1.6-1.4-3.4-1.7-5.4c-1.5,1.1-2.9,2.3-4,3.6
		c-1.4,1.7-2.4,3.6-3.2,5.7c-0.7,2.1-1.1,4.6-1.1,7.3c0,2.4,0.3,4.5,1,6.3s1.5,3.3,2.6,4.5s2.3,2.1,3.7,2.7s2.8,0.9,4.2,0.9
		c2,0,3.8-0.6,5.5-1.9c1.7-1.2,3.2-2.9,4.7-4.9c1.3-1.7,2.5-3.6,3.6-5.7c-1.3-0.7-2.6-1.4-3.9-2.2C52.6,66.4,50.4,64.7,48.5,62.9z"
		/>
	<path class="st1" d="M88.1,73.3c2,1.8,3.6,3.8,4.9,6c0.7,1.3,1.3,2.7,1.6,4.2c1.9-1.3,3.5-2.8,4.8-4.6c1.4-1.8,2.4-3.8,3.1-6
		s1.1-4.5,1.1-7c0-1.9-0.3-3.8-0.8-5.6s-1.3-3.5-2.3-4.9s-2.3-2.6-3.7-3.5c-1.5-0.9-3.2-1.3-5.1-1.3c-2.3,0-4.4,0.6-6.2,1.8
		c-1.8,1.2-3.5,2.8-5,4.7s-3,4.2-4.3,6.7c-0.2,0.4-0.4,0.8-0.6,1.2c1.9,1.1,3.8,2.1,5.7,3.2C83.8,69.8,86,71.5,88.1,73.3z"/>
	<path class="st1" d="M62.9,85.8c-1.8,1.9-3.8,3.5-6.1,4.7c-2.2,1.2-4.6,1.8-7.4,1.8c0.4,0.7,0.8,1.3,1.2,2c1.3,2,2.9,3.6,4.7,5
		s3.8,2.4,6,3.1s4.5,1.1,7,1.1c1.9,0,3.8-0.3,5.6-0.8c1.8-0.5,3.5-1.3,4.9-2.3s2.6-2.3,3.5-3.7c0.9-1.5,1.3-3.2,1.3-5.1
		c0-2.3-0.6-4.4-1.8-6.2c-1.2-1.8-2.8-3.5-4.7-5c-1.9-1.5-4.2-3-6.7-4.3c-0.2-0.1-0.5-0.2-0.7-0.4c-0.6,1.1-1.3,2.3-1.9,3.4
		C66.4,81.6,64.7,83.9,62.9,85.8z"/>
	<path class="st2" d="M62.8,72.1c-1.3-0.7-2.5-1.3-3.8-2c-1.2,2.1-2.4,4-3.6,5.7c-1.5,2-3.1,3.6-4.7,4.9c-1.7,1.2-3.5,1.9-5.5,1.9
		c-1.4,0-2.8-0.3-4.2-0.9s-2.6-1.5-3.7-2.7c-1.1-1.2-1.9-2.7-2.6-4.5c-0.7-1.8-1-3.9-1-6.3c0-2.7,0.4-5.1,1.1-7.3
		c0.7-2.1,1.8-4,3.2-5.7c1.2-1.4,2.5-2.6,4-3.6c-0.1-0.8-0.1-1.5-0.1-2.3c0-2.3,0.3-4.4,1-6.4c-4,1.8-7.3,4.4-9.6,7.7
		c-3,4.2-4.5,9.8-4.5,17.1c0,4,0.5,7.5,1.6,10.6c1,3.1,2.5,5.7,4.3,7.8c1.7,2,3.7,3.5,6,4.6c0.2,0.1,0.3,0.2,0.5,0.2
		c2.5,1.1,5.2,1.6,8.1,1.6c0.1,0,0.2,0,0.3,0c2.8,0,5.3-0.6,7.4-1.8c2.2-1.2,4.3-2.8,6.1-4.7c1.8-1.9,3.4-4.2,4.9-6.7
		c0.7-1.1,1.3-2.3,1.9-3.4C67.5,74.5,65.2,73.3,62.8,72.1z"/>
	<path class="st2" d="M106.6,54.9c-1.1-3.4-2.7-6.2-4.7-8.5s-4.3-4-6.9-5.2c-1.7-0.7-3.4-1.2-5.2-1.5c-1.1-0.2-2.2-0.2-3.3-0.2
		c-1.8,0-3.5,0.3-5,0.8c-0.8,0.3-1.5,0.6-2.2,1c-2.2,1.2-4.2,2.9-6,4.9s-3.5,4.3-5,6.9c-1.2,2-2.4,4.1-3.5,6.2
		c0.2,0.1,0.4,0.2,0.7,0.4c2.6,1.4,5.2,2.8,7.9,4.2c0.7,0.4,1.4,0.8,2.2,1.2c0.2-0.4,0.4-0.8,0.6-1.2c1.3-2.5,2.8-4.7,4.3-6.7
		c1.5-1.9,3.2-3.5,5-4.7s3.9-1.8,6.2-1.8c1.9,0,3.6,0.4,5.1,1.3s2.7,2,3.7,3.5c1,1.4,1.8,3.1,2.3,4.9c0.5,1.8,0.8,3.7,0.8,5.6
		c0,2.5-0.4,4.8-1.1,7s-1.7,4.2-3.1,6c-1.3,1.7-2.9,3.3-4.8,4.6c0.2,1,0.3,2,0.3,3c0,2-0.2,3.9-0.7,5.7c1.4-0.7,2.7-1.5,4-2.3
		c2.2-1.6,4.1-3.4,5.6-5.6s2.7-4.7,3.5-7.6s1.2-6.1,1.2-9.8C108.3,62.3,107.7,58.3,106.6,54.9z"/>
	<path class="st3" d="M94.5,83.5c-0.3-1.5-0.8-2.9-1.6-4.2c-1.2-2.2-2.9-4.2-4.9-6s-4.3-3.5-6.9-5c-1.9-1.1-3.8-2.2-5.7-3.2
		c-0.7-0.4-1.4-0.8-2.2-1.2c-2.7-1.4-5.3-2.8-7.9-4.2c-0.2-0.1-0.4-0.2-0.7-0.4c-2.3-1.3-4.4-2.6-6.2-3.9c-2-1.5-3.6-3.1-4.9-4.7
		c-1.2-1.7-1.9-3.5-1.9-5.5c0-1.4,0.3-2.8,0.9-4.2c0.6-1.4,1.5-2.6,2.7-3.7c1.2-1.1,2.7-1.9,4.5-2.6c1.8-0.7,3.9-1,6.3-1
		c2.7,0,5.1,0.4,7.3,1.1c2.1,0.7,4,1.8,5.7,3.2c0.8,0.7,1.6,1.5,2.3,2.3c1.6-0.6,3.2-0.8,5-0.8c1.1,0,2.2,0.1,3.3,0.2
		c-1.6-2.6-3.6-4.7-6-6.5c-4.2-3-9.8-4.5-17.1-4.5c-4,0-7.5,0.5-10.6,1.6c-3.1,1-5.7,2.5-7.8,4.3s-3.7,4-4.8,6.5
		c-0.2,0.6-0.5,1.1-0.6,1.7c-0.7,2-1,4.1-1,6.4c0,0.8,0.1,1.6,0.1,2.3c0.2,2,0.8,3.8,1.7,5.4c1.2,2.2,2.8,4.3,4.7,6.1
		s4.2,3.4,6.7,4.9c1.3,0.7,2.6,1.5,3.9,2.2c1.3,0.7,2.5,1.4,3.8,2c2.4,1.2,4.7,2.4,7,3.6c0.2,0.1,0.5,0.2,0.7,0.4
		c2.5,1.3,4.7,2.8,6.7,4.3c1.9,1.5,3.5,3.2,4.7,5s1.8,3.9,1.8,6.2c0,1.9-0.4,3.6-1.3,5.1s-2,2.7-3.5,3.7c-1.4,1-3.1,1.8-4.9,2.3
		s-3.7,0.8-5.6,0.8c-2.5,0-4.8-0.4-7-1.1s-4.2-1.7-6-3.1s-3.4-3-4.7-5c-0.4-0.6-0.8-1.3-1.2-2c-0.1,0-0.2,0-0.3,0
		c-2.9,0-5.6-0.5-8.1-1.6c-0.2-0.1-0.3-0.2-0.5-0.2l0,0c1,2.8,2.3,5.3,3.9,7.5c1.6,2.2,3.4,4.1,5.6,5.6c2.2,1.5,4.7,2.7,7.6,3.5
		c2.9,0.8,6.1,1.2,9.8,1.2c4.5,0,8.5-0.6,11.9-1.7s6.2-2.7,8.5-4.7s4-4.3,5.2-6.9c0.4-0.9,0.7-1.9,1-2.8c0.5-1.8,0.7-3.7,0.7-5.7
		C94.8,85.4,94.7,84.4,94.5,83.5z"/>
</g>
</svg>
