<?xml version="1.0" encoding="utf-8"?>
<!-- Generator: Adobe Illustrator 22.1.0, SVG Export Plug-In . SVG Version: 6.00 Build 0)  -->
<svg version="1.1" id="Layer_1" xmlns="http://www.w3.org/2000/svg" xmlns:xlink="http://www.w3.org/1999/xlink" x="0px" y="0px"
	 viewBox="0 0 612 792" style="enable-background:new 0 0 612 792;" xml:space="preserve">
<style type="text/css">

	.st0{fill:#F7DCBD;stroke:#010101;stroke-miterlimit:10;}
	.st1{fill:#F7DCBD;}
	.st2{fill:#080505;stroke:#020202;stroke-miterlimit:10;}
	.st3{fill:#4778BC;stroke:#010101;stroke-miterlimit:10;}
	.st4{fill:#FFFFFF;stroke:#010101;stroke-miterlimit:10;}
	.st5{fill:#231F20;}
	.st6{fill:none;stroke:#231F20;stroke-miterlimit:10;}
	.st7{fill:#BE202E;stroke:#231F20;stroke-miterlimit:10;
	animation:sample 5s infinite;}
	.st8{fill:#F6EB16;stroke:#010101;stroke-miterlimit:10;}
	@keyframes sample {
	  0%   { height: 0; }
	  100% { opacity: 1; }
	}

</style>
<g>
	<path class="st0" d="M401.7,461.6v-71.4h-22v71.4c-5.3,3.5-8.8,9.6-8.8,16.4c0,10.9,8.9,19.8,19.8,19.8s19.8-8.9,19.8-19.8
		C410.5,471.2,407,465.2,401.7,461.6z"/>
	<path class="st0" d="M247.9,461.6v-71.4h-22v71.4c-5.3,3.5-8.8,9.6-8.8,16.4c0,10.9,8.9,19.8,19.8,19.8c10.9,0,19.8-8.9,19.8-19.8
		C256.7,471.2,253.2,465.2,247.9,461.6z"/>
	<rect x="290.8" y="316.6" class="st1" width="50.5" height="57.1"/>
	<g>
		<path class="st2" d="M259.4,640.7H288c0,0,5.9,22.9-8.7,26.4h-30.9c0,0-13.2,2.3-13.2-9.7C235.3,645.3,259.4,640.7,259.4,640.7z"
			/>
	</g>
	<g>
		<path class="st2" d="M367.2,640.7h-28.6c0,0-5.9,22.9,8.7,26.4h30.9c0,0,13.2,2.3,13.2-9.7C391.3,645.3,367.2,640.7,367.2,640.7z"
			/>
	</g>
	<polygon class="st3" points="314.9,515.7 339.1,640.7 367.7,640.7 380.9,489.4 380.9,467.1 246.8,467.1 246.8,489.4 260,640.7 
		288.6,640.7 	"/>
	<path class="st4" d="M413.8,399.8c-6.4-53.2-56.8-87.9-56.8-87.9S334.5,355,316,355s-45.1-43.2-45.1-43.2s-47.3,34-53.7,87.1
		l30.9,11l1.2-32l-3.8,111.1h68.2h0.6h68.2L378.7,378l1.2,32L413.8,399.8z"/>
	<path class="st0" d="M218.3,152.9c0,0-14.3,26.4-12.1,72.5c2.2,46.1-2.2,89,26.4,98.9s107.7,17.6,146.1-7.7
		c38.4-25.3,29.7-34.1,33-37.3c3.3-3.3,31.9-1.1,19.8-29.7s-25.3-18.7-30.8-12.1c0,0,24.2-107.7-64.8-113.1S227.1,139.7,218.3,152.9
		z"/>
	<path class="st5" d="M295.8,106.9c0,0-133.6-4.8-98.9,164.7l68.1-88.8c0,0-11.6,31.5-3.9,53.7c0,0,36.6-64.4,57.1-68.1
		c0,0,41.2,59.3,60.4,59.3l-3.3-59.7c0,0,18,85.1,37.2,94.4C412.6,262.3,472,90.3,295.8,106.9z"/>
	<path class="st5" d="M283.5,149.2c0,0-27-44.3-101.5-29.5c0,0,41.1,10.3,52.7,60.5L283.5,149.2z"/>
	<path class="st5" d="M304,126.3c0,0-27-41.1-101.5-27.4c0,0,41.1,9.6,52.7,56.2L304,126.3z"/>
	<path class="st4" d="M350.5,244.3c0,7.8-6.3,14.1-14.1,14.1s-14.1-6.3-14.1-14.1c0-7.8,6.3-14.1,14.1-14.1S350.5,236.5,350.5,244.3
		z"/>
	<circle class="st5" cx="336.4" cy="244.3" r="3.7"/>
	<path class="st4" d="M280.7,247c0,7.8-6.3,14.1-14.1,14.1s-14.1-6.3-14.1-14.1c0-7.8,6.3-14.1,14.1-14.1S280.7,239.2,280.7,247z"/>
	<circle class="st5" cx="266.6" cy="247" r="3.7"/>
	<line class="st6" x1="312.7" y1="227.6" x2="340.8" y2="217.2"/>
	<path class="st7" d="M314.9,274.6c0,13.8-5,25-11.3,25c-6.2,0-11.3-11.2-11.3-25H314.9z"/>
	<g>
		<circle class="st8" cx="316" cy="412.2" r="35.2"/>
		<circle class="st5" cx="302.8" cy="399.8" r="2.2"/>
		<circle class="st5" cx="329.1" cy="399.8" r="2.2"/>
		<g>
			<g>
				<path class="st5" d="M327.5,433.9c4.5-3,7.3-7.7,8-13c0.1-0.8-1.4-0.6-1.5,0.1c-0.6,5-3.3,9.4-7.5,12.2
					C325.7,433.7,326.9,434.3,327.5,433.9L327.5,433.9z"/>
			</g>
		</g>
		<g>
			<g>
				<path class="st5" d="M331.4,415.5c1.5-3.6,5.8-2,6.2,1.3c0.1,0.5,1.5,0.1,1.4-0.4c-0.6-5-7.4-4.9-9.1-0.7
					C329.7,416.1,331.2,415.9,331.4,415.5L331.4,415.5z"/>
			</g>
		</g>
		<g>
			<g>
				<path class="st5" d="M313,404.6c-1.9,3.3-3.8,6-7,8.3c-1.4,1-2.9,1.7-3.7,3.3c-1.8,3.4,0.6,7.9,4,9.2c6,2.3,16.4-3.7,13.9-10.7
					c-0.1-0.3-1.5,0.1-1.4,0.4c0.8,2,0.4,3.8-0.8,5.7c-1.8,2.8-5.9,4.8-9.2,4.4c-3.4-0.4-5.8-4.2-5.4-7.4c0.4-3.6,4.1-4.6,6.5-6.8
					c2-1.9,3.3-4.2,4.7-6.6C314.6,404.2,313.3,404.2,313,404.6L313,404.6z"/>
			</g>
		</g>
		<g>
			<g>
				<path class="st5" d="M304.8,383.8c-1.7,4.5-4.4,8.5-7.9,11.8c-0.4,0.4,0.6,0.3,0.8,0.1c3.7-3.3,6.4-7.4,8.1-12
					C305.9,383.4,304.9,383.5,304.8,383.8L304.8,383.8z"/>
			</g>
		</g>
		<g>
			<g>
				<path class="st5" d="M321,383.8c1.7,4.6,4.4,8.6,8.1,11.9c0.2,0.2,1.1-0.2,0.9-0.4c-3.6-3.3-6.3-7.3-8-11.8
					C321.8,383.3,320.9,383.6,321,383.8L321,383.8z"/>
			</g>
		</g>
	</g>
</g>
</svg>
